# xmcd CD database file
#
# Track frame offsets:
#	150
#	41130
#	52260
#	105690
#	125029
#	156259
#	183440
#
# Disc length: 3084 seconds
#
# Revision: 0
# Processed by: cddbd v1.5.2PL0 Copyright (c) Steve Scherf et al.
# Submitted via: CDex 1.70beta2
#
DISCID=660c0a07
DTITLE=niceJaquet - Cactus
DYEAR=2003
DGENRE=Jazz
TTITLE0=Bubba Lou
TTITLE1=4tet
TTITLE2=Group
TTITLE3=Cherry's Parfait
TTITLE4=Gotchá
TTITLE5=Relay
TTITLE6=Chorale
EXTD=YEAR: 2003
EXTT0=
EXTT1=
EXTT2=
EXTT3=
EXTT4=
EXTT5=
EXTT6=
PLAYORDER=
